<?xml version="1.0" encoding="UTF-8" standalone="no"?>
<svg
   width="58mm"
   height="58mm"
   version="1.1"
   viewBox="0 0 580 580"
   id="svg14"
   sodipodi:docname="fsin_compact_bw.svg"
   inkscape:version="1.1.1 (3bf5ae0d25, 2021-09-20)"
   xmlns:inkscape="http://www.inkscape.org/namespaces/inkscape"
   xmlns:sodipodi="http://sodipodi.sourceforge.net/DTD/sodipodi-0.dtd"
   xmlns="http://www.w3.org/2000/svg"
   xmlns:svg="http://www.w3.org/2000/svg"
   xmlns:rdf="http://www.w3.org/1999/02/22-rdf-syntax-ns#"
   xmlns:cc="http://creativecommons.org/ns#"
   xmlns:dc="http://purl.org/dc/elements/1.1/">
  <defs
     id="defs18" />
  <sodipodi:namedview
     id="namedview16"
     pagecolor="#505050"
     bordercolor="#eeeeee"
     borderopacity="1"
     inkscape:pageshadow="0"
     inkscape:pageopacity="0"
     inkscape:pagecheckerboard="0"
     inkscape:document-units="mm"
     showgrid="false"
     inkscape:zoom="2.2419459"
     inkscape:cx="63.560856"
     inkscape:cy="-54.193993"
     inkscape:window-width="1702"
     inkscape:window-height="1394"
     inkscape:window-x="1728"
     inkscape:window-y="36"
     inkscape:window-maximized="1"
     inkscape:current-layer="g12"
     fit-margin-top="0"
     fit-margin-left="0"
     fit-margin-right="0"
     fit-margin-bottom="0" />
  <title
     id="title2">Fachschaft Informatik</title>
  <g
     fill="#333333"
     id="g6"
     transform="translate(-10,-10)">
    <polygon
       points="300,110 260,110 260,220 300,220 300,300 260,300 260,590 10,590 10,450 130,450 10,330 10,10 300,10 "
       id="polygon4" />
  </g>
  <g
     fill="#777777"
     id="g12"
     transform="translate(-10,-10)">
    <path
       d="M 310,10 H 590 V 110 H 330 c -13.33333,0 -20,-6.66667 -20,-20 z"
       id="path8"
       sodipodi:nodetypes="cccscc" />
    <polygon
       points="590,330 470,450 590,450 590,590 310,590 310,120 590,120 "
       id="polygon10" />
  </g>
  <!--
    <text x="250" y="580"
    font-family="verdana" font-size="80"
    style="fill:#fff" transform="rotate(-90,250,580)">
        Fachschaft
    </text>
    <text x="320" y="580"
    font-family="verdana" font-size="80"
    style="fill:#000" transform="rotate(-90,320,580) translate(0,58)">
        Informatik
    </text>
    -->
  <metadata
     id="metadata1121">
    <rdf:RDF>
      <cc:Work
         rdf:about="">
        <dc:title>Fachschaft Informatik</dc:title>
      </cc:Work>
    </rdf:RDF>
  </metadata>
</svg>
