<?xml version="1.0" encoding="UTF-8"?>
<svg width="393.61pt" height="504pt" version="1.1" viewBox="0 0 393.61 504" xmlns="http://www.w3.org/2000/svg">
 <g transform="translate(-153.19 -28.005)">
  <path d="m517.71 176.04-48.027-20.27c2.1289-32.566-9.2188-64.855-31.336-88.941-22.648-24.672-54.855-38.824-88.352-38.824-33.492 0-65.695 14.152-88.348 38.824-22.117 24.082-33.465 56.375-31.34 88.941l-48.02 20.266c-17.676 7.457-29.094 24.672-29.094 43.855v64.078c0 19.18 11.418 36.395 29.094 43.855l52.625 22.207-4.4258 51.812c-2.8516 33.375 8.5078 66.668 31.16 91.34 22.652 24.672 54.855 38.82 88.348 38.82 33.496 0 65.703-14.152 88.352-38.824 22.656-24.676 34.012-57.965 31.156-91.34l-4.4258-51.805 52.633-22.215c17.676-7.4609 29.094-24.676 29.094-43.855v-64.074c0-19.18-11.418-36.395-29.094-43.852zm12.293 107.93c0 12.41-7.3867 23.547-18.824 28.379l-58.254 24.586c-3.3516 1.418-5.4141 4.8281-5.1016 8.4531l4.9453 57.887c2.4883 29.121-7.0273 57.012-26.793 78.543-19.766 21.531-46.75 33.387-75.98 33.387-29.227 0-56.207-11.855-75.973-33.387-19.766-21.523-29.281-49.422-26.793-78.543l4.9453-57.891c0.30859-3.625-1.75-7.0391-5.1055-8.4531l-58.246-24.582c-11.438-4.8281-18.824-15.969-18.824-28.379l-4e-3 -64.078c0-12.41 7.3867-23.551 18.824-28.379l53.621-22.629c3.3477-1.4141 5.4102-4.8242 5.1016-8.4492l-0.3125-3.7031c-2.4883-29.121 7.0273-57.016 26.793-78.543 19.766-21.527 46.746-33.383 75.973-33.383 29.23 0 56.215 11.855 75.984 33.387 19.766 21.527 29.281 49.422 26.785 78.555l-0.3125 3.6953c-0.30078 3.625 1.7539 7.0312 5.1094 8.4453l53.621 22.629c11.434 4.8242 18.824 15.965 18.824 28.379zm-94.691-127.29c1.6406-23.898-6.457-46.703-22.809-64.211-16.348-17.512-38.543-27.152-62.496-27.152h-0.0117c-23.957 0-46.156 9.6445-62.504 27.152-16.348 17.508-24.449 40.312-22.809 64.211l8.1367 118.62c0.21484 3.1211 0.21484 6.2852 0 9.4023l-8.1367 118.62c-1.6367 23.898 6.4609 46.699 22.809 64.203 16.352 17.516 38.555 27.156 62.52 27.156 23.953 0 46.152-9.6406 62.504-27.152 16.348-17.504 24.445-40.309 22.805-64.207l-8.1367-118.62c-0.21484-3.1172-0.21484-6.2852 0-9.4062zm-24.891 129.18 8.1367 118.62c1.3125 19.199-5.1953 37.527-18.332 51.594-13.137 14.07-30.977 21.82-50.23 21.82s-37.09-7.75-50.227-21.82c-13.137-14.066-19.645-32.391-18.324-51.594l8.1367-118.62c0.26562-3.8828 0.26562-7.8164 0-11.699l-8.1367-118.62c-1.3164-19.203 5.1914-37.527 18.324-51.594 13.137-14.07 30.98-21.82 50.238-21.82 19.25 0 37.082 7.75 50.219 21.816s19.648 32.395 18.332 51.598l-8.1367 118.62c-0.26953 3.8867-0.26953 7.8242 0 11.703z"/>
 </g>
</svg>
