<?xml version="1.0" encoding="UTF-8"?>
<svg width="395.8pt" height="473.73pt" version="1.1" viewBox="0 0 395.8 473.73" xmlns="http://www.w3.org/2000/svg">
 <g transform="translate(-152.26 -45.61)">
  <path d="m412.72 217.28c-6.1602 0.55859-12.879 1.6797-19.039 2.2383-6.1602 1.1211-12.32 1.6797-19.039 2.2383-21.84 1.1211-43.68 5.0391-64.961 10.641-9.5195 3.3594-18.48 8.3984-26.879 14l-48.16 56c5.6016-2.8008 11.762-5.0391 17.922-7.2812 2.8008-1.1211 5.6016-2.2383 8.3984-3.3594 3.9219-1.6797 7.8398-3.3594 11.762-4.4805 28-7.8398 56.559-14 85.68-18.48 15.121-2.8008 31.359-5.0391 46.48-8.3984l5.6016-1.1211c12.879-2.8008 25.762-5.0391 38.078-8.9609l44.238-51.52c-6.1602 2.8008-12.32 5.0391-18.48 7.2812-19.602 6.1602-40.879 10.082-61.602 11.203z"/>
  <path d="m333.2 348.32c-25.762 3.3594-52.078 7.2812-77.281 12.879-17.359 5.0391-34.16 12.879-49.84 22.961l10.641 8.9609c-17.359 1.6797-38.641 5.0391-50.398 11.762-7.8398 4.4805-13.441 12.879-14 21.84-0.55859 7.8398 2.8008 15.68 8.9609 20.719 6.1602 4.4805 13.441 7.8398 21.281 9.5195l4.4805 1.1211c3.3594 1.1211 7.2812 2.2383 10.078 2.8008 13.441 3.9219 25.199 7.2812 34.16 16.238 3.9219 3.3594 6.1602 8.3984 5.6016 13.441-1.1211 3.9219-5.6016 6.7188-12.32 8.3984-17.922 4.4805-34.719-2.2383-52.641-9.5195l-5.6016-2.2383c-5.0391-1.6797-10.641 0.55859-12.32 5.6016-1.1211 3.9219 0 7.8398 2.8008 10.641 1.1211 0.55859 1.6797 1.1211 2.8008 1.6797l5.6016 2.2383c20.16 7.8398 40.879 15.68 64.398 10.078 13.441-3.3594 23.52-11.199 26.32-21.84 2.8008-10.641-0.55859-21.84-10.078-32.48-12.32-13.441-28-17.359-43.121-21.84-3.3594-1.1211-6.7188-1.6797-10.078-2.8008-1.6797-0.55859-3.3594-1.1211-5.0391-1.6797-5.0391-1.1211-9.5195-2.8008-13.441-5.6016-2.8008-2.2383-2.8008-3.9219-2.8008-4.4805 0.55859-2.8008 2.2383-5.6016 5.0391-6.7188 12.32-7.2812 49.281-10.078 61.602-10.078l3.9219 2.8008c2.8008-1.6797 5.6016-2.8008 8.9609-3.9219l3.3594-1.1211c12.879-5.6016 32.48-4.4805 49.84-3.3594 3.9219 0 7.8398 0.55859 11.762 0.55859l54.879-63.84c-8.9609 1.6797-17.922 3.3594-26.32 4.4805z"/>
  <path d="m258.16 421.12-3.3594 1.1172-2.8008 1.1211 19.602 16.801c2.2383 1.6797 5.0391 2.8008 7.8398 2.2383 1.6797 0 3.3594-0.55859 4.4805-1.6797 1.1211-0.55859 1.6797-1.1211 2.8008-2.2383l17.359-20.16h-1.6797c-15.121-0.55859-33.602-1.6797-44.242 2.8008z"/>
  <path d="m478.24 78.961c11.762-3.3594 22.961-7.8398 34.16-13.441 5.0391-2.8008 10.078-6.1602 14.559-10.078-27.441-20.16-72.801-8.3984-103.04 26.879l-6.7188 7.8398c16.801-1.6797 34.16-4.4805 50.398-7.8398z"/>
  <path d="m441.28 159.6-7.2812 1.1172c-8.9609 1.1211-18.48 1.6797-26.879 2.8008-19.039 1.1211-37.52 3.9219-56 7.8398l-4.4805 1.1211-41.441 48.719 1.1211-0.55859c21.84-6.1602 44.238-9.5195 67.199-11.199 6.1602-0.55859 12.32-1.6797 18.48-2.2383 6.1602-1.1211 12.879-1.6797 19.602-2.2383 20.16-1.1211 39.762-4.4805 59.359-10.641 12.879-4.4805 25.199-10.078 36.961-16.238l6.7188-3.3594 7.2812-8.3984c10.078-11.199 17.359-24.078 21.84-38.641-9.5195 7.2812-20.719 12.879-31.922 16.801-22.961 7.832-46.48 12.871-70.559 15.113z"/>
  <path d="m536.48 64.398c-5.6016 4.4805-11.762 8.9609-17.922 12.32-11.762 5.6016-23.52 10.641-36.398 14.559l-10.078 3.3594c-20.719 4.4805-41.441 7.2812-62.16 8.9609h-4.4805l-44.801 52.641c15.121-2.8008 30.238-4.4805 45.359-5.6016 8.9609-0.55859 17.922-1.6797 26.879-2.8008l6.7188-0.55859c22.961-2.2383 45.922-6.7188 67.762-14.559 14.559-5.6016 28.559-14 40.32-24.641 1.6797-15.68-2.2383-31.359-11.199-43.68z"/>
  <path d="m407.68 273.28c-15.68 3.3594-31.359 6.1602-47.039 8.3984-28.559 3.9219-56.559 10.078-84 17.922-3.3594 1.1211-7.2812 2.8008-10.641 3.9219-3.3594 1.1211-6.1602 2.8008-9.5195 3.9219-19.039 6.7188-36.398 16.801-51.52 29.68l-15.68 17.922c-0.55859 0.55859-0.55859 1.1211-1.1211 1.1211-3.3594 3.9219-2.8008 10.078 1.1211 13.441l6.1602 5.0391c17.359-11.762 36.961-20.719 57.121-26.879 25.762-5.6016 52.641-9.5195 78.398-12.879l10.078-1.1211c14.559-1.6797 29.121-4.4805 43.121-8.3984l11.762-13.441 38.078-44.238c-6.7188 1.6797-14 2.8008-20.719 4.4805z"/>
 </g>
</svg>
